<?xml version="1.0" encoding="utf-8"?>
<!-- Generator: Adobe Illustrator 24.0.0, SVG Export Plug-In . SVG Version: 6.00 Build 0)  -->
<svg version="1.1" id="Layer_1" xmlns="http://www.w3.org/2000/svg" xmlns:xlink="http://www.w3.org/1999/xlink" x="0px" y="0px"
	 viewBox="0 0 650.7 391.8" style="enable-background:new 0 0 650.7 391.8;" xml:space="preserve">
<style type="text/css">
	.st0{clip-path:url(#SVGID_2_);}
	.st1{fill:url(#SVGID_3_);}
	.st2{opacity:0.83;}
	.st3{fill:#A6D8F5;}
	.st4{opacity:0.45;}
	.st5{opacity:0.55;fill:#A6D8F5;enable-background:new    ;}
	.st6{fill:#0B366B;}
	.st7{fill:#011B3C;}
	.st8{fill:#DBECFF;}
	.st9{fill:#284879;}
	.st10{fill:#346F8F;}
	.st11{fill:#D0E3F4;}
	.st12{fill:#315082;}
	.st13{fill:none;stroke:#DBECFF;stroke-width:2;stroke-miterlimit:10;}
	.st14{opacity:0.36;fill:#0B366B;enable-background:new    ;}
</style>
<g>
	<g id="Layer_2_1_">
		<g id="OBJECTS">
			<g>
				<defs>
					<rect id="SVGID_1_" width="650.7" height="391.8"/>
				</defs>
				<clipPath id="SVGID_2_">
					<use xlink:href="#SVGID_1_"  style="overflow:visible;"/>
				</clipPath>
				<g class="st0">
					
						<radialGradient id="SVGID_3_" cx="325.37" cy="318.105" r="268.5521" gradientTransform="matrix(1 0 0 -1 0 514)" gradientUnits="userSpaceOnUse">
						<stop  offset="0" style="stop-color:#489DCC"/>
						<stop  offset="1" style="stop-color:#245A81"/>
					</radialGradient>
					<rect class="st1" width="650.7" height="391.8"/>
					<g class="st2">
						<g>
							<rect x="2" y="93.2" class="st3" width="8.8" height="333.2"/>
						</g>
						<g>
							<rect x="80.5" y="84.1" class="st3" width="8.8" height="333.2"/>
						</g>
						<g>
							<rect x="95.5" y="134.2" class="st3" width="8.8" height="333.2"/>
						</g>
						<g>
							<rect x="134.7" y="83.4" class="st3" width="8.8" height="333.2"/>
						</g>
						<g>
							<rect x="160.4" y="106.3" class="st3" width="8.8" height="333.2"/>
						</g>
						<g>
							<rect x="207.5" y="131" class="st3" width="8.8" height="333.2"/>
						</g>
						<g>
							<rect x="228.2" y="140" class="st3" width="8.8" height="333.2"/>
						</g>
						<g>
							<rect x="293.2" y="142.9" class="st3" width="8.8" height="333.2"/>
						</g>
						<g>
							<rect x="148.6" y="161.7" class="st3" width="8.8" height="333.2"/>
						</g>
						<g>
							<rect x="431.4" y="144.2" class="st3" width="8.8" height="333.2"/>
						</g>
						<g>
							<rect x="409.3" y="151.1" class="st3" width="8.8" height="333.2"/>
						</g>
						<g>
							<rect x="364.6" y="151.2" class="st3" width="8.8" height="333.2"/>
						</g>
						<g>
							<rect x="345.9" y="139.6" class="st3" width="8.8" height="333.2"/>
						</g>
						<g>
							<rect x="473" y="100.1" class="st3" width="8.8" height="333.2"/>
						</g>
						<g>
							<rect x="501" y="105.2" class="st3" width="8.8" height="333.2"/>
						</g>
						<g>
							<rect x="537.2" y="159.7" class="st3" width="8.8" height="333.2"/>
						</g>
						<g>
							<rect x="553.1" y="115" class="st3" width="8.8" height="333.2"/>
						</g>
						<g>
							<rect x="577.4" y="81.5" class="st3" width="8.8" height="333.2"/>
						</g>
						<g>
							<rect x="621" y="137.5" class="st3" width="8.8" height="333.2"/>
						</g>
						<g>
							<rect x="638.6" y="180.1" class="st3" width="8.8" height="333.2"/>
						</g>
					</g>
					<g class="st4">
						<path class="st5" d="M-35.1,140.3l74.3,1.3c-21.9,0.1-43.8,1.9-65.5,5.3c15.9-2.5,34.8,0.5,50.8,1.5c16,0.9,31.9,3.4,47.5,7.3
							c9.4,2.5,19,2.6,28.7,3.3c21.5,1.7,43.3,3.7,64.5,7.5c-10.9-1.9-21.5-4.8-31.9-8.6c31.2,3.8,62.7,4.3,93.9,1.2
							c-22.6,0.7-45.3-1-67.6-4.9c19,0.6,38,0.2,57-1.1c-23.1-0.8-46.1-4.1-69-6.8c-10.2-1.2-20.4-2.4-30.6-3.5
							c-53.6-5.8-106.8-9.3-160.5-2.8L-35.1,140.3z"/>
						<path class="st5" d="M481.6,128.6c-11.8-1.5-23.5-2-34.8,1.2c22-13.8,50.3-8.4,76.2-9.9c22.8-1.3,45.4-8.4,68.2-6.4
							c10.1,0.9,19.9,3.6,30,4.2c18.7,1.1,36.1-6.6,54.3-6.8c-4.5,2.6-9.5,4.2-14.6,4.6c-2.3,0.2-4.7,0.2-6.9,0.5
							c-2.5,0.5-5,1.1-7.4,2c-12.1,3.8-24.4,6.5-37,8l26.9,0.4c6.6,0.2,13.2,0.1,19.7-0.5c4-0.4,7.9-1.1,11.9-1.8l17.4-3.1
							c-16.9,15.7-38.3,15.5-60,12.3c-15.9-2.3-31.8-6.1-47.9-5.8c-18.1,0.3-35.8,5.8-53.9,5.9C509.5,133.5,495.5,130.4,481.6,128.6
							z"/>
					</g>
					<g class="st4">
						<path class="st5" d="M-69.8,172.2c6.6,1.6,13.2,3.4,19.9,4.4c18,2.5,36.3-1.8,54.5-0.7c6.6,0,13.5,1.6,19.9,2.8
							c6.3,1.2,12.8,1,19.2,1.2l41.6,1.6c13.4,0.5,26.9,1.7,40.2,1.9s26.4-0.6,39.6-0.8c-11.3,0.2-22.4-1.5-33.6-3.2l-30-4.6
							l62.6,0.2c-6.5-1.4-13.2-2.5-19.8-3.1c-4.2-0.3-8.4-0.3-12.7-0.6c-16.4-0.9-32.5-4.9-48.8-6.7c-5.1-0.6-10.1-0.9-15.2-1.2
							l-15.9-1c-32.7-2.1-65-1.6-97.7-0.5c-11.4,0.4-22.8,1.1-34.2,2.1c-6.4,0.6-22.7-0.4-27.3,4.3c11.3,0.4,22.3,0.5,33.5,2.9
							C-72.7,171.5-71.3,171.8-69.8,172.2z"/>
						<path class="st5" d="M443,148.5h-0.3c20.4-1.8,40.8-2.4,61.3-1.8l-76.6-3.4c20.9-2.4,41.7-0.2,62.3-1.7
							c21-1.6,41.5-7.9,62.8-6c10,0.9,19.9,3.6,30,4.2c26.3,1.6,52.2-10.9,78.4-8.3c14.2,1.4,28,5.8,42.3,5.6
							c-9.6,0.3-19.1,1.5-28.4,3.7c-11.2,2.5-22.1,2.7-32.4,8.4c-8.7,4.9-14.1,5.3-24.5,5.3c-23.8,0-47.7-0.9-71.5-1.9l-23-0.9
							L443,148.5z"/>
					</g>
					<polygon class="st6" points="545.2,295.8 545.2,391.8 105.6,391.8 105.6,301.1 127.1,301.1 127.1,259.5 148.4,259.5 
						148.4,320.4 164.6,320.4 164.6,209.5 219.3,209.5 219.3,301.1 238.5,301.1 238.5,252.7 258.1,252.7 258.1,223.1 262.1,223.1 
						262.1,252.7 274.8,252.7 274.8,320.4 303.3,320.4 303.3,252.7 361,252.7 361,308.4 385.7,308.4 385.7,271.4 427.6,271.4 
						427.6,301.6 475.8,301.6 475.8,217.4 524.9,217.4 524.9,295.8 					"/>
					<polygon class="st6" points="439.6,295.8 439.6,391.8 0,391.8 0,301.1 21.5,301.1 21.5,259.5 42.8,259.5 42.8,320.4 59,320.4 
						59,209.5 113.7,209.5 113.7,301.1 133,301.1 133,252.7 152.6,252.7 152.6,223.1 156.5,223.1 156.5,252.7 169.3,252.7 
						169.3,320.4 197.7,320.4 197.7,252.7 255.4,252.7 255.4,308.4 280.1,308.4 280.1,271.4 322,271.4 322,301.6 370.2,301.6 
						370.2,217.4 419.3,217.4 419.3,295.8 					"/>
					<polygon class="st6" points="650.7,320.4 650.7,391.8 480.6,391.8 480.6,301.1 502.1,301.1 502.1,259.5 523.3,259.5 
						523.3,320.4 539.6,320.4 539.6,209.5 594.3,209.5 594.3,301.1 613.5,301.1 613.5,252.7 633.1,252.7 633.1,223.1 637.1,223.1 
						637.1,252.7 649.8,252.7 649.8,320.4 					"/>
					<polygon class="st7" points="649.8,252.7 649.8,391.8 0,391.8 0,301.1 37.2,370.2 113.7,209.5 155.3,382.2 219.8,256 
						298.7,370.2 361,308.4 397.6,294.9 417.7,272 427.6,271.4 427.6,336.7 502.1,301.1 524.9,217.4 524.9,339.2 560.8,301 
						605.7,316 613.5,301.1 					"/>
					<path class="st8" d="M106,6.3c-1.9,0-1.4,2.8,0.5,2.8S107.8,6.3,106,6.3z"/>
					<path class="st8" d="M454.7,98.7c-1.9,0-1.4,2.8,0.5,2.8S456.5,98.7,454.7,98.7z"/>
					<path class="st8" d="M35.5,17.5c-1.9,0-1.4,2.8,0.5,2.8S37.3,17.5,35.5,17.5z"/>
					<path class="st8" d="M135.5,90.5c-1.9,0-1.4,2.8,0.5,2.8S137.3,90.5,135.5,90.5z"/>
					<path class="st8" d="M174.5,36.5c-1.9,0-1.4,2.8,0.5,2.8S176.3,36.5,174.5,36.5z"/>
					<path class="st8" d="M45.5,158.5c-1.9,0-1.4,2.8,0.5,2.8S47.3,158.5,45.5,158.5z"/>
					<path class="st8" d="M99.1,12.1c-1.3,0-0.9,1.9,0.3,1.9S100.3,12.1,99.1,12.1z"/>
					<path class="st8" d="M149.6,105c-1.3,0-0.9,1.9,0.3,1.9S150.8,105,149.6,105z"/>
					<path class="st8" d="M27.6,119c-1.3,0-0.9,1.9,0.3,1.9S28.8,119,27.6,119z"/>
					<path class="st8" d="M15.6,116c-1.3,0-0.9,1.9,0.3,1.9S16.8,116,15.6,116z"/>
					<path class="st8" d="M446.3,94.8c-1.3,0-0.9,1.9,0.3,1.9S447.5,94.8,446.3,94.8z"/>
					<path class="st8" d="M174,41.8c-1.3,0-0.9,1.9,0.3,1.9S175.2,41.8,174,41.8z"/>
					<path class="st8" d="M230.6,15c-1.3,0-0.9,1.9,0.3,1.9S231.8,15,230.6,15z"/>
					<path class="st8" d="M187.6,118c-1.3,0-0.9,1.9,0.3,1.9S188.8,118,187.6,118z"/>
					<path class="st8" d="M89.4,95c-1.3,0-0.9,1.9,0.3,1.9S90.6,95,89.4,95z"/>
					<path class="st8" d="M109.6,125c-1.3,0-0.9,1.9,0.3,1.9S110.8,125,109.6,125z"/>
					<path class="st8" d="M16.3,35.6c-3.2,0-2.3,4.7,0.8,4.7C20.4,40.3,19.4,35.6,16.3,35.6z"/>
					<path class="st8" d="M157.3,142.6c-3.2,0-2.3,4.7,0.8,4.7C161.4,147.3,160.4,142.6,157.3,142.6z"/>
					<path class="st8" d="M191,24.2c-3.2,0-2.3,4.8,0.8,4.8C195,29,194.1,24.2,191,24.2z"/>
					<path class="st8" d="M39.3,109.6c-3.2,0-2.3,4.7,0.8,4.7C43.4,114.3,42.4,109.6,39.3,109.6z"/>
					<path class="st8" d="M516.5,110.5c-1.9,0-1.4,2.8,0.5,2.8S518.3,110.5,516.5,110.5z"/>
					<path class="st8" d="M435.5,41.5c-1.9,0-1.4,2.8,0.5,2.8S437.3,41.5,435.5,41.5z"/>
					<path class="st8" d="M550.5,19.5c-1.9,0-1.4,2.8,0.5,2.8S552.3,19.5,550.5,19.5z"/>
					<path class="st8" d="M518.5,54.5c-1.9,0-1.4,2.8,0.5,2.8S520.3,54.5,518.5,54.5z"/>
					<path class="st8" d="M618.5,20.5c-1.9,0-1.4,2.8,0.5,2.8S620.3,20.5,618.5,20.5z"/>
					<path class="st8" d="M618.5,145.5c-1.9,0-1.4,2.8,0.5,2.8S620.3,145.5,618.5,145.5z"/>
					<path class="st8" d="M458.6,20c-1.3,0-0.9,1.9,0.3,1.9S459.8,20,458.6,20z"/>
					<path class="st8" d="M466.6,24c-1.3,0-0.9,1.9,0.3,1.9S467.8,24,466.6,24z"/>
					<path class="st8" d="M577.6,19c-1.3,0-0.9,1.9,0.3,1.9S578.8,19,577.6,19z"/>
					<path class="st8" d="M562.6,26c-1.3,0-0.9,1.9,0.3,1.9S563.8,26,562.6,26z"/>
					<path class="st8" d="M620.6,123c-1.3,0-0.9,1.9,0.3,1.9S621.8,123,620.6,123z"/>
					<path class="st8" d="M530.6,118c-1.3,0-0.9,1.9,0.3,1.9S531.8,118,530.6,118z"/>
					<path class="st8" d="M491.6,75c-1.3,0-0.9,1.9,0.3,1.9S492.8,75,491.6,75z"/>
					<path class="st8" d="M440.6,174c-1.3,0-0.9,1.9,0.3,1.9S441.8,174,440.6,174z"/>
					<path class="st8" d="M494.6,168c-1.3,0-0.9,1.9,0.3,1.9S495.8,168,494.6,168z"/>
					<path class="st8" d="M605.6,70c-1.3,0-0.9,1.9,0.3,1.9S606.8,70,605.6,70z"/>
					<path class="st8" d="M417.3,10.6c-3.2,0-2.3,4.7,0.8,4.7C421.4,15.3,420.4,10.6,417.3,10.6z"/>
					<path class="st8" d="M635.3,6.6c-3.2,0-2.3,4.7,0.8,4.7C639.4,11.3,638.4,6.6,635.3,6.6z"/>
					<path class="st8" d="M516.3,74.6c-3.2,0-2.3,4.7,0.8,4.7C520.4,79.3,519.4,74.6,516.3,74.6z"/>
					<path class="st8" d="M454.3,144.6c-3.2,0-2.3,4.7,0.8,4.7C458.4,149.3,457.4,144.6,454.3,144.6z"/>
					<path class="st8" d="M626.3,89.6c-3.2,0-2.3,4.7,0.8,4.7C630.4,94.3,629.4,89.6,626.3,89.6z"/>
					<path class="st8" d="M568.3,81.6c-3.2,0-2.3,4.7,0.8,4.7C572.4,86.3,571.4,81.6,568.3,81.6z"/>
					<rect x="363.5" y="319.3" class="st9" width="34.1" height="72.5"/>
					<rect x="368" y="311" class="st9" width="25.1" height="8.3"/>
					<rect x="372.3" y="303.5" class="st9" width="16.5" height="7.5"/>
					<rect x="375" y="297" class="st9" width="11.1" height="6.5"/>
					<rect x="378.1" y="293.4" class="st9" width="5" height="3.6"/>
					<rect x="379.8" y="282.1" class="st9" width="1.6" height="11.9"/>
					<rect x="372.6" y="369.4" class="st8" width="7" height="2.5"/>
					<rect x="372.6" y="364.8" class="st8" width="7" height="2.5"/>
					<rect x="372.6" y="351.7" class="st8" width="7" height="2.5"/>
					<rect x="372.6" y="341.8" class="st8" width="7" height="2.5"/>
					<rect x="372.6" y="328" class="st8" width="7" height="2.5"/>
					<rect x="381.5" y="328" class="st8" width="7" height="2.5"/>
					<rect x="381.5" y="333.5" class="st8" width="7" height="2.5"/>
					<rect x="381.5" y="341.8" class="st8" width="7" height="2.5"/>
					<rect x="381.5" y="356.1" class="st8" width="7" height="2.5"/>
					<rect x="381.5" y="364.8" class="st8" width="7" height="2.5"/>
					<rect x="381.5" y="369.4" class="st8" width="7" height="2.5"/>
					<rect x="38.9" y="192.2" class="st10" width="34.1" height="199.6"/>
					<rect x="43.4" y="183.9" class="st10" width="25.1" height="8.3"/>
					<rect x="47.7" y="176.4" class="st10" width="16.5" height="7.5"/>
					<rect x="50.4" y="169.9" class="st10" width="11.1" height="6.5"/>
					<rect x="53.4" y="166.3" class="st10" width="5" height="3.6"/>
					<rect x="55.2" y="155" class="st10" width="1.6" height="11.9"/>
					<rect x="48" y="242.4" class="st8" width="7" height="2.5"/>
					<rect x="48" y="237.7" class="st8" width="7" height="2.5"/>
					<rect x="48" y="224.6" class="st8" width="7" height="2.5"/>
					<rect x="48" y="214.7" class="st8" width="7" height="2.5"/>
					<rect x="48" y="200.9" class="st8" width="7" height="2.5"/>
					<rect x="56.9" y="200.9" class="st8" width="7" height="2.5"/>
					<rect x="56.9" y="206.4" class="st8" width="7" height="2.5"/>
					<rect x="56.9" y="214.7" class="st8" width="7" height="2.5"/>
					<rect x="56.9" y="229.1" class="st8" width="7" height="2.5"/>
					<rect x="56.9" y="237.7" class="st8" width="7" height="2.5"/>
					<rect x="56.9" y="242.4" class="st8" width="7" height="2.5"/>
					<rect x="53.4" y="247.1" class="st8" width="7" height="2.5"/>
					<rect x="48" y="348.3" class="st8" width="7" height="2.5"/>
					<rect x="48" y="343.6" class="st8" width="7" height="2.5"/>
					<rect x="48" y="330.5" class="st8" width="7" height="2.5"/>
					<rect x="48" y="320.6" class="st8" width="7" height="2.5"/>
					<rect x="48" y="306.8" class="st8" width="7" height="2.5"/>
					<rect x="56.9" y="306.8" class="st8" width="7" height="2.5"/>
					<rect x="56.9" y="312.4" class="st8" width="7" height="2.5"/>
					<rect x="56.9" y="320.6" class="st8" width="7" height="2.5"/>
					<rect x="56.9" y="335" class="st8" width="7" height="2.5"/>
					<rect x="56.9" y="343.6" class="st8" width="7" height="2.5"/>
					<rect x="56.9" y="348.3" class="st8" width="7" height="2.5"/>
					<rect x="53.4" y="353" class="st8" width="7" height="2.5"/>
					<rect x="56.9" y="259.3" class="st8" width="7" height="2.5"/>
					<rect x="56.9" y="263.9" class="st8" width="7" height="2.5"/>
					<rect x="56.9" y="277" class="st8" width="7" height="2.5"/>
					<rect x="56.9" y="286.9" class="st8" width="7" height="2.5"/>
					<rect x="56.9" y="300.7" class="st8" width="7" height="2.5"/>
					<rect x="48" y="300.7" class="st8" width="7" height="2.5"/>
					<rect x="48" y="295.1" class="st8" width="7" height="2.5"/>
					<rect x="48" y="286.9" class="st8" width="7" height="2.5"/>
					<rect x="48" y="272.5" class="st8" width="7" height="2.5"/>
					<rect x="48" y="263.9" class="st8" width="7" height="2.5"/>
					<rect x="48" y="259.3" class="st8" width="7" height="2.5"/>
					<rect x="51.5" y="254.5" class="st8" width="7" height="2.5"/>
					<rect x="503.9" y="208.4" class="st9" width="13.7" height="183.2"/>
					<polygon class="st9" points="466.5,220.7 466.5,391.6 432,391.6 432,208.4 445.7,208.4 456.9,215.1 					"/>
					<polygon class="st10" points="503.9,232.1 503.9,391.6 466.5,391.6 466.5,239.5 471.6,237.9 489.5,232.1 					"/>
					<rect x="443.9" y="256.7" class="st8" width="7" height="2.5"/>
					<rect x="443.9" y="261" class="st8" width="7" height="2.5"/>
					<rect x="443.9" y="270.5" class="st8" width="7" height="2.5"/>
					<rect x="453.4" y="270.5" class="st8" width="7" height="2.5"/>
					<rect x="453.4" y="279.1" class="st8" width="7" height="2.5"/>
					<rect x="453.4" y="283.6" class="st8" width="7" height="2.5"/>
					<rect x="473.2" y="305.9" class="st8" width="7" height="2.5"/>
					<rect x="473.2" y="296.9" class="st8" width="7" height="2.5"/>
					<rect x="473.2" y="292.2" class="st8" width="7" height="2.5"/>
					<rect x="473.2" y="279.1" class="st8" width="7" height="2.5"/>
					<rect x="473.2" y="269.2" class="st8" width="7" height="2.5"/>
					<rect x="473.2" y="255.4" class="st8" width="7" height="2.5"/>
					<rect x="482.1" y="255.4" class="st8" width="7" height="2.5"/>
					<rect x="482.1" y="261" class="st8" width="7" height="2.5"/>
					<rect x="482.1" y="269.2" class="st8" width="7" height="2.5"/>
					<rect x="482.1" y="283.6" class="st8" width="7" height="2.5"/>
					<rect x="482.1" y="292.2" class="st8" width="7" height="2.5"/>
					<rect x="482.1" y="296.9" class="st8" width="7" height="2.5"/>
					<rect x="482.1" y="305.9" class="st8" width="7" height="2.5"/>
					<rect x="453.4" y="265.5" class="st8" width="7" height="2.5"/>
					<rect x="453.4" y="261" class="st8" width="7" height="2.5"/>
					<rect x="443.9" y="275" class="st8" width="7" height="2.5"/>
					<rect x="443.9" y="283.6" class="st8" width="7" height="2.5"/>
					<rect x="443.9" y="287.8" class="st8" width="7" height="2.5"/>
					<rect x="443.9" y="292.1" class="st8" width="7" height="2.5"/>
					<rect x="443.9" y="301.6" class="st8" width="7" height="2.5"/>
					<rect x="453.4" y="301.6" class="st8" width="7" height="2.5"/>
					<rect x="453.4" y="310.3" class="st8" width="7" height="2.5"/>
					<rect x="453.4" y="314.8" class="st8" width="7" height="2.5"/>
					<rect x="453.4" y="296.6" class="st8" width="7" height="2.5"/>
					<rect x="453.4" y="292.1" class="st8" width="7" height="2.5"/>
					<rect x="443.9" y="306.1" class="st8" width="7" height="2.5"/>
					<rect x="443.9" y="314.8" class="st8" width="7" height="2.5"/>
					<rect x="482.1" y="320.3" class="st8" width="7" height="2.5"/>
					<rect x="482.1" y="324.6" class="st8" width="7" height="2.5"/>
					<rect x="482.1" y="334.1" class="st8" width="7" height="2.5"/>
					<rect x="472.6" y="334.1" class="st8" width="7" height="2.5"/>
					<rect x="472.6" y="342.8" class="st8" width="7" height="2.5"/>
					<rect x="472.6" y="347.3" class="st8" width="7" height="2.5"/>
					<rect x="452.8" y="369.5" class="st8" width="7" height="2.5"/>
					<rect x="452.8" y="360.5" class="st8" width="7" height="2.5"/>
					<rect x="452.8" y="355.9" class="st8" width="7" height="2.5"/>
					<rect x="452.8" y="342.8" class="st8" width="7" height="2.5"/>
					<rect x="452.8" y="332.9" class="st8" width="7" height="2.5"/>
					<rect x="452.8" y="319.1" class="st8" width="7" height="2.5"/>
					<rect x="443.9" y="319.1" class="st8" width="7" height="2.5"/>
					<rect x="443.9" y="324.6" class="st8" width="7" height="2.5"/>
					<rect x="443.9" y="332.9" class="st8" width="7" height="2.5"/>
					<rect x="443.9" y="347.3" class="st8" width="7" height="2.5"/>
					<rect x="443.9" y="355.9" class="st8" width="7" height="2.5"/>
					<rect x="443.9" y="360.5" class="st8" width="7" height="2.5"/>
					<rect x="443.9" y="369.5" class="st8" width="7" height="2.5"/>
					<rect x="472.6" y="329.1" class="st8" width="7" height="2.5"/>
					<rect x="472.6" y="324.6" class="st8" width="7" height="2.5"/>
					<rect x="482.1" y="338.6" class="st8" width="7" height="2.5"/>
					<rect x="482.1" y="347.3" class="st8" width="7" height="2.5"/>
					<polygon class="st9" points="342.9,236.2 342.9,391.9 308.4,391.9 308.4,237.1 319,229.9 334.4,219.5 334.4,230.9 					"/>
					<rect x="317.4" y="242.2" class="st8" width="7" height="2.5"/>
					<rect x="317.4" y="246.5" class="st8" width="7" height="2.5"/>
					<rect x="317.4" y="256" class="st8" width="7" height="2.5"/>
					<rect x="326.9" y="256" class="st8" width="7" height="2.5"/>
					<rect x="326.9" y="264.6" class="st8" width="7" height="2.5"/>
					<rect x="326.9" y="269.1" class="st8" width="7" height="2.5"/>
					<rect x="326.9" y="251" class="st8" width="7" height="2.5"/>
					<rect x="326.9" y="246.5" class="st8" width="7" height="2.5"/>
					<rect x="317.4" y="260.5" class="st8" width="7" height="2.5"/>
					<rect x="317.4" y="269.1" class="st8" width="7" height="2.5"/>
					<rect x="317.4" y="273.3" class="st8" width="7" height="2.5"/>
					<rect x="317.4" y="277.6" class="st8" width="7" height="2.5"/>
					<rect x="317.4" y="287.1" class="st8" width="7" height="2.5"/>
					<rect x="326.9" y="287.1" class="st8" width="7" height="2.5"/>
					<rect x="326.9" y="295.8" class="st8" width="7" height="2.5"/>
					<rect x="326.9" y="300.3" class="st8" width="7" height="2.5"/>
					<rect x="326.9" y="282.1" class="st8" width="7" height="2.5"/>
					<rect x="326.9" y="277.6" class="st8" width="7" height="2.5"/>
					<rect x="317.4" y="291.6" class="st8" width="7" height="2.5"/>
					<rect x="317.4" y="300.3" class="st8" width="7" height="2.5"/>
					<rect x="326.3" y="355" class="st8" width="7" height="2.5"/>
					<rect x="326.3" y="346" class="st8" width="7" height="2.5"/>
					<rect x="326.3" y="341.4" class="st8" width="7" height="2.5"/>
					<rect x="326.3" y="328.3" class="st8" width="7" height="2.5"/>
					<rect x="326.3" y="318.4" class="st8" width="7" height="2.5"/>
					<rect x="326.3" y="304.6" class="st8" width="7" height="2.5"/>
					<rect x="317.4" y="304.6" class="st8" width="7" height="2.5"/>
					<rect x="317.4" y="310.1" class="st8" width="7" height="2.5"/>
					<rect x="317.4" y="318.4" class="st8" width="7" height="2.5"/>
					<rect x="317.4" y="332.8" class="st8" width="7" height="2.5"/>
					<rect x="317.4" y="341.4" class="st8" width="7" height="2.5"/>
					<rect x="317.4" y="346" class="st8" width="7" height="2.5"/>
					<rect x="317.4" y="355" class="st8" width="7" height="2.5"/>
					<polygon class="st10" points="598.5,215.3 598.5,391.7 560.8,391.6 560.8,215 570.9,194.8 588.1,194.8 593.3,205.1 					"/>
					<rect x="571.7" y="265.8" class="st8" width="7" height="2.5"/>
					<rect x="571.7" y="261.1" class="st8" width="7" height="2.5"/>
					<rect x="571.7" y="248" class="st8" width="7" height="2.5"/>
					<rect x="571.7" y="238.1" class="st8" width="7" height="2.5"/>
					<rect x="571.7" y="224.3" class="st8" width="7" height="2.5"/>
					<rect x="580.6" y="224.3" class="st8" width="7" height="2.5"/>
					<rect x="580.6" y="229.9" class="st8" width="7" height="2.5"/>
					<rect x="580.6" y="238.1" class="st8" width="7" height="2.5"/>
					<rect x="580.6" y="252.5" class="st8" width="7" height="2.5"/>
					<rect x="580.6" y="261.1" class="st8" width="7" height="2.5"/>
					<rect x="580.6" y="265.8" class="st8" width="7" height="2.5"/>
					<rect x="571.4" y="271.6" class="st8" width="7" height="2.5"/>
					<rect x="571.4" y="275.9" class="st8" width="7" height="2.5"/>
					<rect x="571.4" y="285.4" class="st8" width="7" height="2.5"/>
					<rect x="580.9" y="285.4" class="st8" width="7" height="2.5"/>
					<rect x="580.9" y="294" class="st8" width="7" height="2.5"/>
					<rect x="580.9" y="298.5" class="st8" width="7" height="2.5"/>
					<rect x="580.9" y="280.4" class="st8" width="7" height="2.5"/>
					<rect x="580.9" y="275.9" class="st8" width="7" height="2.5"/>
					<rect x="571.4" y="289.9" class="st8" width="7" height="2.5"/>
					<rect x="571.4" y="298.5" class="st8" width="7" height="2.5"/>
					<rect x="571.4" y="302.7" class="st8" width="7" height="2.5"/>
					<rect x="571.4" y="307" class="st8" width="7" height="2.5"/>
					<rect x="571.4" y="316.5" class="st8" width="7" height="2.5"/>
					<rect x="580.9" y="316.5" class="st8" width="7" height="2.5"/>
					<rect x="580.9" y="325.1" class="st8" width="7" height="2.5"/>
					<rect x="580.9" y="329.6" class="st8" width="7" height="2.5"/>
					<rect x="580.9" y="311.5" class="st8" width="7" height="2.5"/>
					<rect x="580.9" y="307" class="st8" width="7" height="2.5"/>
					<rect x="571.4" y="321" class="st8" width="7" height="2.5"/>
					<rect x="571.4" y="329.6" class="st8" width="7" height="2.5"/>
					<rect x="580.3" y="384.4" class="st8" width="7" height="2.5"/>
					<rect x="580.3" y="375.4" class="st8" width="7" height="2.5"/>
					<rect x="580.3" y="370.8" class="st8" width="7" height="2.5"/>
					<rect x="580.3" y="357.7" class="st8" width="7" height="2.5"/>
					<rect x="580.3" y="347.8" class="st8" width="7" height="2.5"/>
					<rect x="580.3" y="334" class="st8" width="7" height="2.5"/>
					<rect x="571.4" y="334" class="st8" width="7" height="2.5"/>
					<rect x="571.4" y="339.5" class="st8" width="7" height="2.5"/>
					<rect x="571.4" y="347.8" class="st8" width="7" height="2.5"/>
					<rect x="571.4" y="362.1" class="st8" width="7" height="2.5"/>
					<rect x="571.4" y="370.8" class="st8" width="7" height="2.5"/>
					<rect x="571.4" y="375.4" class="st8" width="7" height="2.5"/>
					<rect x="571.4" y="384.4" class="st8" width="7" height="2.5"/>
					<polygon class="st9" points="152.3,242 152.3,392.4 110.1,392.4 110.1,242 136.4,219.5 140.4,216 					"/>
					<rect x="122.9" y="252.4" class="st11" width="7" height="2.5"/>
					<rect x="122.9" y="256.7" class="st11" width="7" height="2.5"/>
					<rect x="122.9" y="266.3" class="st11" width="7" height="2.5"/>
					<rect x="132.4" y="266.3" class="st11" width="7" height="2.5"/>
					<rect x="132.4" y="274.9" class="st11" width="7" height="2.5"/>
					<rect x="132.4" y="279.4" class="st11" width="7" height="2.5"/>
					<rect x="132.4" y="261.2" class="st11" width="7" height="2.5"/>
					<rect x="132.4" y="256.7" class="st11" width="7" height="2.5"/>
					<rect x="122.9" y="270.7" class="st11" width="7" height="2.5"/>
					<rect x="122.9" y="279.4" class="st11" width="7" height="2.5"/>
					<rect x="122.9" y="283.6" class="st11" width="7" height="2.5"/>
					<rect x="122.9" y="287.9" class="st11" width="7" height="2.5"/>
					<rect x="122.9" y="297.4" class="st11" width="7" height="2.5"/>
					<rect x="132.4" y="297.4" class="st11" width="7" height="2.5"/>
					<rect x="132.4" y="306" class="st11" width="7" height="2.5"/>
					<rect x="132.4" y="310.5" class="st11" width="7" height="2.5"/>
					<rect x="132.4" y="292.4" class="st11" width="7" height="2.5"/>
					<rect x="132.4" y="287.9" class="st11" width="7" height="2.5"/>
					<rect x="122.9" y="301.9" class="st11" width="7" height="2.5"/>
					<rect x="122.9" y="310.5" class="st11" width="7" height="2.5"/>
					<rect x="131.8" y="365.3" class="st11" width="7" height="2.5"/>
					<rect x="131.8" y="356.3" class="st11" width="7" height="2.5"/>
					<rect x="131.8" y="351.6" class="st11" width="7" height="2.5"/>
					<rect x="131.8" y="338.5" class="st11" width="7" height="2.5"/>
					<rect x="131.8" y="328.6" class="st11" width="7" height="2.5"/>
					<rect x="131.8" y="314.8" class="st11" width="7" height="2.5"/>
					<rect x="122.9" y="314.8" class="st11" width="7" height="2.5"/>
					<rect x="122.9" y="320.4" class="st11" width="7" height="2.5"/>
					<rect x="122.9" y="328.6" class="st11" width="7" height="2.5"/>
					<rect x="122.9" y="343" class="st11" width="7" height="2.5"/>
					<rect x="122.9" y="351.6" class="st11" width="7" height="2.5"/>
					<rect x="122.9" y="356.3" class="st11" width="7" height="2.5"/>
					<rect x="122.9" y="365.3" class="st11" width="7" height="2.5"/>
					<polygon class="st9" points="647.8,293.5 647.8,391.7 605.6,391.7 605.6,293.5 636,276.6 					"/>
					<rect x="618.5" y="313" class="st11" width="7" height="2.5"/>
					<rect x="618.5" y="317.3" class="st11" width="7" height="2.5"/>
					<rect x="618.5" y="326.8" class="st11" width="7" height="2.5"/>
					<rect x="628" y="326.8" class="st11" width="7" height="2.5"/>
					<rect x="628" y="335.5" class="st11" width="7" height="2.5"/>
					<rect x="628" y="339.9" class="st11" width="7" height="2.5"/>
					<rect x="628" y="321.8" class="st11" width="7" height="2.5"/>
					<rect x="628" y="317.3" class="st11" width="7" height="2.5"/>
					<rect x="618.5" y="331.3" class="st11" width="7" height="2.5"/>
					<rect x="618.5" y="339.9" class="st11" width="7" height="2.5"/>
					<rect x="618.5" y="344.2" class="st11" width="7" height="2.5"/>
					<rect x="618.5" y="348.5" class="st11" width="7" height="2.5"/>
					<rect x="618.5" y="358" class="st11" width="7" height="2.5"/>
					<rect x="628" y="358" class="st11" width="7" height="2.5"/>
					<rect x="628" y="366.6" class="st11" width="7" height="2.5"/>
					<rect x="628" y="371.1" class="st11" width="7" height="2.5"/>
					<rect x="628" y="353" class="st11" width="7" height="2.5"/>
					<rect x="628" y="348.5" class="st11" width="7" height="2.5"/>
					<rect x="618.5" y="362.5" class="st11" width="7" height="2.5"/>
					<rect x="618.5" y="371.1" class="st11" width="7" height="2.5"/>
					<rect x="627.3" y="389.2" class="st11" width="7" height="2.5"/>
					<rect x="627.3" y="375.4" class="st11" width="7" height="2.5"/>
					<rect x="618.5" y="375.4" class="st11" width="7" height="2.5"/>
					<rect x="618.5" y="381" class="st11" width="7" height="2.5"/>
					<rect x="618.5" y="389.2" class="st11" width="7" height="2.5"/>
					<rect x="233.3" y="210" class="st10" width="33.4" height="182"/>
					<rect x="266.7" y="254.6" class="st10" width="33.4" height="137.6"/>
					<rect x="250" y="186.4" class="st10" width="33.4" height="205.9"/>
					<rect x="258.3" y="246.6" class="st8" width="7" height="2.5"/>
					<rect x="258.3" y="237.6" class="st8" width="7" height="2.5"/>
					<rect x="258.3" y="232.9" class="st8" width="7" height="2.5"/>
					<rect x="258.3" y="219.8" class="st8" width="7" height="2.5"/>
					<rect x="258.3" y="209.9" class="st8" width="7" height="2.5"/>
					<rect x="258.3" y="196.1" class="st8" width="7" height="2.5"/>
					<rect x="267.2" y="196.1" class="st8" width="7" height="2.5"/>
					<rect x="267.2" y="201.7" class="st8" width="7" height="2.5"/>
					<rect x="267.2" y="209.9" class="st8" width="7" height="2.5"/>
					<rect x="267.2" y="224.3" class="st8" width="7" height="2.5"/>
					<rect x="267.2" y="232.9" class="st8" width="7" height="2.5"/>
					<rect x="267.2" y="237.6" class="st8" width="7" height="2.5"/>
					<rect x="267.2" y="246.6" class="st8" width="7" height="2.5"/>
					<rect x="267.2" y="261" class="st8" width="7" height="2.5"/>
					<rect x="267.2" y="265.3" class="st8" width="7" height="2.5"/>
					<rect x="267.2" y="274.9" class="st8" width="7" height="2.5"/>
					<rect x="257.7" y="274.9" class="st8" width="7" height="2.5"/>
					<rect x="257.7" y="283.5" class="st8" width="7" height="2.5"/>
					<rect x="257.7" y="288" class="st8" width="7" height="2.5"/>
					<rect x="257.7" y="269.8" class="st8" width="7" height="2.5"/>
					<rect x="257.7" y="265.3" class="st8" width="7" height="2.5"/>
					<rect x="267.2" y="279.3" class="st8" width="7" height="2.5"/>
					<rect x="267.2" y="288" class="st8" width="7" height="2.5"/>
					<rect x="257.7" y="346.9" class="st8" width="7" height="2.5"/>
					<rect x="257.7" y="337.9" class="st8" width="7" height="2.5"/>
					<rect x="257.7" y="333.3" class="st8" width="7" height="2.5"/>
					<rect x="257.7" y="320.1" class="st8" width="7" height="2.5"/>
					<rect x="257.7" y="310.3" class="st8" width="7" height="2.5"/>
					<rect x="257.7" y="296.5" class="st8" width="7" height="2.5"/>
					<rect x="266.6" y="296.5" class="st8" width="7" height="2.5"/>
					<rect x="266.6" y="302" class="st8" width="7" height="2.5"/>
					<rect x="266.6" y="310.3" class="st8" width="7" height="2.5"/>
					<rect x="266.6" y="324.6" class="st8" width="7" height="2.5"/>
					<rect x="266.6" y="333.3" class="st8" width="7" height="2.5"/>
					<rect x="266.6" y="337.9" class="st8" width="7" height="2.5"/>
					<rect x="266.6" y="346.9" class="st8" width="7" height="2.5"/>
					<rect x="266.6" y="361.4" class="st8" width="7" height="2.5"/>
					<rect x="266.6" y="365.7" class="st8" width="7" height="2.5"/>
					<rect x="266.6" y="375.2" class="st8" width="7" height="2.5"/>
					<rect x="257" y="375.2" class="st8" width="7" height="2.5"/>
					<rect x="257" y="383.8" class="st8" width="7" height="2.5"/>
					<rect x="257" y="388.3" class="st8" width="7" height="2.5"/>
					<rect x="257" y="370.2" class="st8" width="7" height="2.5"/>
					<rect x="257" y="365.7" class="st8" width="7" height="2.5"/>
					<rect x="266.6" y="379.7" class="st8" width="7" height="2.5"/>
					<rect x="266.6" y="388.3" class="st8" width="7" height="2.5"/>
					<rect x="286.6" y="311.9" class="st8" width="7" height="2.5"/>
					<rect x="286.6" y="302.9" class="st8" width="7" height="2.5"/>
					<rect x="286.6" y="298.2" class="st8" width="7" height="2.5"/>
					<rect x="286.6" y="285.1" class="st8" width="7" height="2.5"/>
					<rect x="286.6" y="275.3" class="st8" width="7" height="2.5"/>
					<rect x="286.6" y="261.4" class="st8" width="7" height="2.5"/>
					<rect x="286" y="340.2" class="st8" width="7" height="2.5"/>
					<rect x="286" y="348.8" class="st8" width="7" height="2.5"/>
					<rect x="286" y="353.3" class="st8" width="7" height="2.5"/>
					<rect x="286" y="335.1" class="st8" width="7" height="2.5"/>
					<rect x="286" y="330.6" class="st8" width="7" height="2.5"/>
					<rect x="239.6" y="224.8" class="st8" width="7" height="2.5"/>
					<rect x="239.6" y="230.4" class="st8" width="7" height="2.5"/>
					<rect x="239.6" y="238.7" class="st8" width="7" height="2.5"/>
					<rect x="239.6" y="253" class="st8" width="7" height="2.5"/>
					<rect x="239.6" y="261.6" class="st8" width="7" height="2.5"/>
					<rect x="239.6" y="266.3" class="st8" width="7" height="2.5"/>
					<rect x="239.6" y="275.3" class="st8" width="7" height="2.5"/>
					<rect x="239.5" y="289.8" class="st8" width="7" height="2.5"/>
					<rect x="239.5" y="294.1" class="st8" width="7" height="2.5"/>
					<rect x="239.5" y="303.6" class="st8" width="7" height="2.5"/>
					<rect x="239.5" y="308.1" class="st8" width="7" height="2.5"/>
					<rect x="239.5" y="316.7" class="st8" width="7" height="2.5"/>
					<path class="st12" d="M211.3,351.9l3,41.4h-44.5l5.4-30l0,0l-3-86.2l-2.4-67.6h44.5l-11.1,30.9l0,0l1.3,17.7L211.3,351.9z"/>
					<path class="st10" d="M201.4,381.5c2.4,7.1,4.2,11.1,4.2,11.1l-14.3-1.5l-4.9-0.5c-2.1-3.8-4-7.8-5.7-11.9
						c-2.1-5.1-3.9-10.2-5.4-15.5l0,0c-8.1-28.8-7.1-59.7-3-86.2c1.4-9.1,3.2-17.7,5-25.5c3.3-14.3,7.8-28.3,13.2-42h21
						c0,0-2.6,7.9-8.2,30.9l0,0c-0.5,2.1-1,4.4-1.6,6.8c-2.3,9.6-4.9,21.4-8,35.7C184.9,323.8,195.1,363,201.4,381.5z"/>
					<path class="st12" d="M211.3,351.9c-2.1,10.2-5.5,20.2-9.9,29.6c-1.5,3.1-3.1,6.1-4.9,9.1l-5.2,0.5l-15.3,1.5
						c1.8-4.5,3.4-9.2,4.7-13.9c5.5-19,12.8-55.1,3.9-93.8c-3-13.1-5.4-24.2-7.3-33.5c-6.3-30.8-7.4-42-7.4-42h22.4
						c3.4,8,6.4,16.2,9,24.6c0.6,2,1.3,4.2,2,6.4l0,0c5.1,17.1,8.6,34.7,10.5,52.5C215.7,311.8,215.5,332.2,211.3,351.9z"/>
					<path class="st12" d="M214.3,209.5h-44.5c0,0,12-5.8,18-12.1c1-1,1.8-2.1,2.5-3.3L214.3,209.5z"/>
					<line class="st13" x1="181.1" y1="251" x2="187.1" y2="248.3"/>
					<line class="st13" x1="190.2" y1="246.6" x2="196.2" y2="243.9"/>
					<line class="st13" x1="184.1" y1="259.1" x2="190.1" y2="256.4"/>
					<line class="st13" x1="187.1" y1="266" x2="193.1" y2="263.4"/>
					<line class="st13" x1="196.2" y1="261.6" x2="202.2" y2="259"/>
					<line class="st13" x1="197.8" y1="268.9" x2="203.8" y2="266.3"/>
					<line class="st13" x1="190.2" y1="281.3" x2="196.2" y2="278.6"/>
					<line class="st13" x1="199.4" y1="276.9" x2="205.4" y2="274.3"/>
					<line class="st13" x1="191.6" y1="287.1" x2="197.6" y2="284.5"/>
					<line class="st13" x1="193.2" y1="292.8" x2="199.2" y2="290.2"/>
					<line class="st13" x1="202.4" y1="288.4" x2="208.4" y2="285.8"/>
					<line class="st13" x1="203.8" y1="295" x2="209.8" y2="292.4"/>
					<line class="st13" x1="204.7" y1="302" x2="210.7" y2="299.4"/>
					<line class="st13" x1="205.4" y1="309.4" x2="211.4" y2="306.8"/>
					<line class="st13" x1="196.2" y1="320.9" x2="202.2" y2="318.2"/>
					<line class="st13" x1="205.4" y1="316.5" x2="211.4" y2="313.8"/>
					<line class="st13" x1="196.2" y1="328.2" x2="202.2" y2="325.5"/>
					<line class="st13" x1="196.2" y1="334.7" x2="202.2" y2="332"/>
					<line class="st13" x1="205.4" y1="330.3" x2="211.4" y2="327.6"/>
					<line class="st13" x1="194.8" y1="342" x2="200.8" y2="339.4"/>
					<line class="st13" x1="203.9" y1="337.6" x2="209.9" y2="335"/>
					<line class="st13" x1="203.1" y1="344.6" x2="209.1" y2="342"/>
					<line class="st13" x1="193.1" y1="355.2" x2="199.1" y2="352.5"/>
					<line class="st13" x1="202.2" y1="350.8" x2="208.2" y2="348.1"/>
					<line class="st13" x1="191" y1="362.3" x2="197" y2="359.7"/>
					<line class="st13" x1="200.1" y1="357.9" x2="206.1" y2="355.3"/>
					<line class="st13" x1="188.5" y1="370.4" x2="194.5" y2="367.8"/>
					<line class="st13" x1="186.4" y1="378.7" x2="192.4" y2="376.1"/>
					<line class="st13" x1="195.5" y1="374.3" x2="201.5" y2="371.7"/>
					<polygon class="st14" points="650.7,342 650.7,391.8 0,391.8 0,349.7 14.3,338 38.9,331.9 43.4,302 70.1,268.9 90.7,302.9 
						113.7,301.1 126.4,338 147.1,348.1 170.3,338 184.1,321.9 211.4,321.1 224.7,342 239.5,332.9 250,284.9 278.3,299.9 
						282.9,322.9 295.3,325.1 311.4,357.6 332.7,371.1 333.3,330.8 362.7,335 372.6,354.2 396.5,336 417.7,343.9 437.2,311.9 
						460.4,310.3 465.8,334 482.1,349.8 503.9,336 510.7,334 529.8,351.7 550.7,328 571.4,323.5 578.4,336.5 587.3,347.8 
						594.2,357.9 612.7,334 642.7,329 					"/>
					<polygon class="st3" points="73,192.2 73,227.4 70.7,206.4 68.5,194.1 66,192.2 64.2,185.2 62.3,183.9 61.5,183.4 61.5,177.9 
						58.5,176.4 58.5,172.2 55.2,169.9 55.2,166.3 58.5,166.3 58.5,169.9 61.5,169.9 61.5,176.4 64.2,176.4 64.2,183.9 68.5,183.9 
						68.5,192.2 					"/>
					<polygon class="st3" points="152.3,242 136.4,219.5 140.4,216 					"/>
					<path class="st3" d="M203.2,240.4c5.1,17.2,8.7,34.7,10.6,52.6l-9.3-34.8l-2.9-10.9l-2.2-8.4l1.9-4.8l5.6-14.2l-3.5-10.3
						l-1-2.9l-14.6-9.2c1-1,1.8-2.1,2.5-3.3l24.1,15.4L203.2,240.4L203.2,240.4z"/>
					<polygon class="st3" points="300.1,254.6 300.1,261 283.4,257.1 280.2,256.4 280.1,254.6 274.2,192.2 250,186.4 283.4,186.4 
						283.4,254.6 					"/>
					<polygon class="st3" points="342.9,236.2 342.9,269.8 338.7,242.2 333.9,235.4 328.4,226.8 319,229.9 334.4,219.5 334.4,230.9 
											"/>
					<polygon class="st3" points="381.9,293.4 380.6,295.8 379.8,297 378.1,299.4 378.1,303.5 375,307.4 375.9,311 376.1,311.9 
						370.9,312.8 370.1,317.3 369.2,319.3 369.1,319.6 363.5,322.8 363.5,319.3 368,319.3 368,311 372.3,311 372.3,303.5 375,303.5 
						375,297 378.1,297 378.1,293.4 379.8,293.4 381.4,282.1 381.4,293.4 					"/>
					<polygon class="st3" points="456.9,215.1 446.7,214.9 438.6,230.4 432,278.9 432,208.4 445.7,208.4 					"/>
					<polygon class="st3" points="517.5,208.4 510.7,215.2 503.9,238.7 503.9,238.7 489.1,238.9 466.5,244.7 471.6,237.9 
						489.5,232.1 503.9,232.1 503.9,208.4 					"/>
					<polygon class="st3" points="593.3,205.1 580.9,200.9 571.4,209.5 560.8,224.3 560.8,215 570.9,194.8 588.1,194.8 					"/>
					<polygon class="st3" points="647.8,293.5 631.5,288 605.6,300 605.6,293.5 636,276.6 					"/>
				</g>
			</g>
		</g>
	</g>
</g>
</svg>
